<?xml version="1.0" encoding="UTF-8" standalone="no"?>
<svg xmlns="http://www.w3.org/2000/svg" version="1.1" viewBox="0 0 256 256" width="256" height="256">
<path d="m22.16 22.16v42.67 40 46.34 40 42.67h42.67 40 46.34 40 42.67v-42.67-40-46.34-40-42.67h-42.67-40-46.34-40-42.67zm42.67 42.67h86.34 10.42 29.58v86.34 10.42 29.58h-23.443-16.557-86.34v-29.58-10.42-86.34zm10.355 10.355v23.649l29.166 29.166-29.166 29.166v23.649h23.649l29.166-29.166 29.166 29.166h4.0481 19.6v-23.649l-29.166-29.166 29.166-29.166v-23.649h-23.649l-29.166 29.166-29.166-29.166h-23.649z" fill-rule="evenodd" fill="#72a7cf"/>
</svg>
